<svg xmlns="http://www.w3.org/2000/svg" width="44" height="44" viewBox="0 0 44 44">
    <defs>
        <style>
            .cls-1{fill:#ff6868}.cls-2{fill:#fff}
        </style>
    </defs>
    <g id="Google" transform="translate(-90 -714)">
        <circle id="Ellipse_2" cx="22" cy="22" r="22" class="cls-1" data-name="Ellipse 2" transform="translate(90 714)"/>
        <path id="Path_7" d="M-69.812-1698.374c-.022-.135-.068-.174-.206-.174q-5.209.006-10.417 0c-.159 0-.188.05-.187.2q.008 2.027 0 4.053c0 .169.034.222.215.221 1.949-.007 3.9 0 5.847-.007.139 0 .192.016.156.178a5.324 5.324 0 0 1-2.272 3.371.3.3 0 0 1-.038.033 6.863 6.863 0 0 1-5.647.831 6.726 6.726 0 0 1-4.87-5 6.427 6.427 0 0 1 .232-4.182 6.7 6.7 0 0 1 5.78-4.478 6.107 6.107 0 0 1 4.9 1.573c.114.1.173.09.276-.013q1.47-1.481 2.951-2.95c.1-.1.123-.159 0-.266a10.919 10.919 0 0 0-5.281-2.643 11.508 11.508 0 0 0-4.773.07 11.186 11.186 0 0 0-5.587 3.1 11.293 11.293 0 0 0-3.232 6.446 11.228 11.228 0 0 0 .1 3.84 10.993 10.993 0 0 0 1.234 3.327 11.394 11.394 0 0 0 6.336 5.292 11.694 11.694 0 0 0 5.631.461 10.717 10.717 0 0 0 4.27-1.57 7.76 7.76 0 0 0 1.353-1.061 1.437 1.437 0 0 0 .121-.094 10.108 10.108 0 0 0 2.364-3.463 12.152 12.152 0 0 0 .874-3.637 13.913 13.913 0 0 0-.13-3.458z" class="cls-2" data-name="Path 7" transform="translate(193.201 2432.313)"/>
    </g>
</svg>
