<svg xmlns="http://www.w3.org/2000/svg" width="44" height="44" viewBox="0 0 44 44">
    <defs>
        <style>
            .cls-1{fill:#3b97ff}.cls-2{fill:#fff}
        </style>
    </defs>
    <g id="LinkedIn" transform="translate(-120 -732)">
        <circle id="Ellipse_2" cx="22" cy="22" r="22" class="cls-1" data-name="Ellipse 2" transform="translate(120 732)"/>
        <g id="Group_8" data-name="Group 8" transform="translate(-620.973 2986.942)">
            <path id="Path_8" d="M927.148-2082.257c-.123-1.842-1.483-2.845-3.032-2.2a2.68 2.68 0 0 0-1.509 2.266 10.428 10.428 0 0 0-.062 1.8c0 1.71 0 3.422-.005 5.133 0 .663-.179.827-.836.831-.875.005-1.75-.017-2.624.009a.881.881 0 0 1-.9-.493v-12.719a.913.913 0 0 1 .952-.516c.8.021 1.6 0 2.393.007.893 0 1.008.121 1.028 1.012a.715.715 0 0 0 .091.507 4.116 4.116 0 0 1 2.257-1.531 6.812 6.812 0 0 1 3.347-.006 4.463 4.463 0 0 1 3.236 4.191c.318 2.927.151 5.868.179 8.8a.658.658 0 0 1-.763.74c-.934-.013-1.868-.026-2.8.006a.814.814 0 0 1-.923-.611c.018-2.405.049-4.815-.029-7.226z" class="cls-2" data-name="Path 8" transform="translate(-158.145 -149.878)"/>
            <path id="Path_9" d="M772.669-2069.995a.881.881 0 0 1-.994.611c-.835-.031-1.672 0-2.509-.01-.636-.005-.877-.207-.878-.817q-.014-6.038 0-12.077a.731.731 0 0 1 .834-.818c.895 0 1.789.01 2.684 0a.84.84 0 0 1 .866.631q-.003 6.238-.003 12.48z" class="cls-2" data-name="Path 9" transform="translate(-14.506 -154.909)"/>
            <path id="Path_10" d="M755.975-2244.761a2.767 2.767 0 0 1 2.771 2.842 2.821 2.821 0 0 1-2.821 2.754 2.84 2.84 0 0 1-2.78-2.864 2.789 2.789 0 0 1 2.83-2.732z" class="cls-2" data-name="Path 10"/>
        </g>
    </g>
</svg>
